<svg width="864" height="648" viewBox="0 0 864 648" fill="none" xmlns="http://www.w3.org/2000/svg">
<mask id="mask0_20_20" style="mask-type:alpha" maskUnits="userSpaceOnUse" x="0" y="0" width="864" height="648">
<rect x="474" width="390" height="648" fill="#292929"/>
<rect width="390" height="648" fill="#292929"/>
</mask>
<g mask="url(#mask0_20_20)">
<mask id="mask1_20_20" style="mask-type:alpha" maskUnits="userSpaceOnUse" x="-193" y="3" width="1250" height="643">
<mask id="mask2_20_20" style="mask-type:alpha" maskUnits="userSpaceOnUse" x="-193" y="3" width="1250" height="643">
<path d="M-168 205.297C-14.8596 367.102 62.264 321.817 216.546 158.806M1032 205.498C877.718 368.509 800.79 320.611 647.649 158.806C493.367 -4.2047 369.688 -2.99845 216.547 158.806M-168 251.717C-14.8596 89.9125 62.264 135.197 216.546 298.208M1032 251.516C877.718 88.5052 800.79 136.403 647.649 298.208C493.367 461.219 369.688 460.013 216.547 298.208M-168 396.803C-14.8596 558.608 62.264 513.324 216.546 350.312M1032 397.004C877.718 560.015 800.79 512.117 647.649 350.312C493.367 187.301 369.688 188.508 216.547 350.312M-168 443.223C-14.8596 281.419 62.264 326.703 216.546 489.714M1032 443.022C877.718 280.011 800.79 327.909 647.649 489.714C493.367 652.725 369.688 651.519 216.547 489.714" stroke="url(#paint0_linear_20_20)" stroke-width="67" stroke-linejoin="round"/>
</mask>
<g mask="url(#mask2_20_20)">
<rect x="-297.492" y="-41.3281" width="1458.96" height="731.18" fill="#313131"/>
<path d="M-168.004 205.305C-14.8636 367.11 62.2601 321.825 216.542 158.814M1032 205.506C877.714 368.517 800.786 320.619 647.645 158.814C493.363 -4.19689 369.684 -2.99063 216.544 158.814M-168.004 251.725C-14.8636 89.9203 62.2601 135.205 216.542 298.216M1032 251.524C877.714 88.513 800.786 136.411 647.645 298.216C493.363 461.227 369.684 460.02 216.544 298.216M-168.004 396.811C-14.8636 558.616 62.2601 513.331 216.542 350.32M1032 397.012C877.714 560.023 800.786 512.125 647.645 350.32C493.363 187.309 369.684 188.515 216.544 350.32M-168.004 443.231C-14.8636 281.426 62.2601 326.711 216.542 489.722M1032 443.03C877.714 280.019 800.786 327.917 647.645 489.722C493.363 652.733 369.684 651.527 216.544 489.722" stroke="url(#paint1_linear_20_20)" stroke-width="67" stroke-linejoin="round"/>
</g>
</mask>
<g mask="url(#mask1_20_20)">
<rect x="-1" width="866" height="641" fill="white"/>
</g>
</g>
<defs>
<linearGradient id="paint0_linear_20_20" x1="432.055" y1="381.933" x2="432.055" y2="16.4763" gradientUnits="userSpaceOnUse">
<stop stop-color="#FF0000"/>
<stop offset="1" stop-color="#303334"/>
</linearGradient>
<linearGradient id="paint1_linear_20_20" x1="432.052" y1="381.941" x2="432.052" y2="16.4841" gradientUnits="userSpaceOnUse">
<stop/>
<stop offset="1" stop-color="#303334"/>
</linearGradient>
</defs>
</svg>
